#### ##       ##       ##     ##  ######  ####  #######  ##    ## 
 ##  ##       ##       ##     ## ##    ##  ##  ##     ## ###   ## 
 ##  ##       ##       ##     ## ##        ##  ##     ## ####  ## 
 ##  ##       ##       ##     ##  ######   ##  ##     ## ## ## ## 
 ##  ##       ##       ##     ##       ##  ##  ##     ## ##  #### 
 ##  ##       ##       ##     ## ##    ##  ##  ##     ## ##   ### 
#### ######## ########  #######   ######  ####  #######  ##    ## 


Movie Info
Plot: Set in a medieval village that is 
haunted by a werewolf, a young girl falls for an 
orphaned woodcutter, much to her family's displeasure. 
IMDB:  
http://www.imdb.com/title/tt1486185/
IMDB Rating: 4.6
Trailer:



General Info
Size: 1.34GB
Format: AVI
Runtime: 1:35:05



Sources
Video - shapka.2011.D.CAMRip
Audio - Red Riding Hood 2011 TS XViD - IMAGiNE
(THANKS)



Video Info
ID : 0
Format : MPEG-4 Visual
Format profile : Advanced Simple@L5
Format settings, BVOP : 2
Format settings, QPel : No
Format settings, GMC : No warppoints
Format settings, Matrix : Default (H.263)
Muxing mode : Packed bitstream
Codec ID : XVID
Codec ID/Hint : XviD
Duration : 1h 35mn
Bit rate : 1 885 Kbps
Width : 720 pixels
Height : 304 pixels
Display aspect ratio : 2.35:1
Frame rate : 25.000 fps
Color space : YUV
Chroma subsampling : 4:2:0
Bit depth : 8 bits
Scan type : Progressive
Compression mode : Lossy
Bits/(Pixel*Frame) : 0.344
Stream size : 1.25 GiB (93%)
Writing library : XviD 58



Audio Info
ID : 1
Format : MPEG Audio
Format version : Version 1
Format profile : Layer 3
Codec ID : 55
Codec ID/Hint : MP3
Duration : 1h 35mn
Bit rate mode : Constant
Bit rate : 128 Kbps
Channel(s) : 2 channels
Sampling rate : 44.1 KHz
Compression mode : Lossy
Stream size : 87.1 MiB (6%)
Alignment : Split accross interleaves
Interleave, duration : 40 ms (1.00 video frame)
Interleave, preload duration : 500 ms



Encoders Notes
I dropped the source into vdubmod.
There i lowered the brightness & saturation,
increased the contrast & sharpened it.
Then i de-interlaced & de-noised it.
Finaly i changed the colors with a rgb eq
& muxed it to the line audio.
Well its nothing special, just your average cam.
Its blurry & has loads of dark scene's.
The colors on the source were way off,
I tried my best but there still not great.
I think i got it as good as i could without draining the 
color's out of people's face's.
Its just about watchable on your pc screen.
Download the sample first, to check your happy with the quality.
Enjoy...


I am looking for;
Cammers, Cams, Screeners (any type), Cam audio, Line audio, 
Un-released R6's R5's R4's R2's R1's, 
A 25GB+ FTP server, A Windows Server
& a syncer. 
If you can provide any of these please
contact me at illusion@hushmail.me


Greetz & Respect:
ChattChitto RG, Hunter, iNK, DiNGiE, Recalled2Life, Chaos, 
SERENiTY, IFLIX, Demedic, ELEKTRI4KA, hiest, Feel-Free, 
KRG, every uploader & encoder out there.






================================== 
http://thepiratebay.org/user/hiest
==================================






Screenz:
 
http://leetleech.org/images/52906987408689541672.jpg
 
http://leetleech.org/images/11302245727031950010.jpg
 
http://leetleech.org/images/02472235235211839462.jpg
 
http://leetleech.org/images/46970427409774667258.jpg
 
http://leetleech.org/images/06163993457097264385.jpg
 
http://leetleech.org/images/69287138287883518114.jpg


#### ##       ##       ##     ##  ######  ####  #######  ##    ## 
 ##  ##       ##       ##     ## ##    ##  ##  ##     ## ###   ## 
 ##  ##       ##       ##     ## ##        ##  ##     ## ####  ## 
 ##  ##       ##       ##     ##  ######   ##  ##     ## ## ## ## 
 ##  ##       ##       ##     ##       ##  ##  ##     ## ##  #### 
 ##  ##       ##       ##     ## ##    ##  ##  ##     ## ##   ### 
#### ######## ########  #######   ######  ####  #######  ##    ## 
